<svg xmlns="http://www.w3.org/2000/svg" xmlns:xlink="http://www.w3.org/1999/xlink" width="98.527" height="33.698" viewBox="0 0 98.527 33.698">
  <defs>
    <clipPath id="clip-path">
      <path id="Clip_2" data-name="Clip 2" d="M0,0H44.667V30.726H0Z" transform="translate(0 0.274)" fill="none"/>
    </clipPath>
    <clipPath id="clip-path-2">
      <path id="Clip_5" data-name="Clip 5" d="M0,0H71.206V33.7H0Z" transform="translate(0.321 0.302)" fill="none"/>
    </clipPath>
  </defs>
  <g id="favicon" transform="translate(0 -0.302)">
    <g id="Group_3" data-name="Group 3" transform="translate(0 3)">
      <path id="Clip_2-2" data-name="Clip 2" d="M0,0H44.667V30.726H0Z" transform="translate(0 0.274)" fill="none"/>
      <g id="Group_3-2" data-name="Group 3" clip-path="url(#clip-path)">
        <path id="Fill_1" data-name="Fill 1" d="M27.07,30.726H0L16.158,14.253,29.558.675a2.247,2.247,0,0,1,3.215,0L44.667,12.786l-17.6,17.94Zm8.464-10.4a.6.6,0,0,0-.427.18.629.629,0,0,0,0,.87.595.595,0,0,0,.858,0,.621.621,0,0,0,0-.87A.593.593,0,0,0,35.534,20.328ZM33.848,18.61a.605.605,0,0,0-.431.18.626.626,0,0,0,0,.874.615.615,0,0,0,.431.178.6.6,0,0,0,.427-.182.624.624,0,0,0,0-.87A.594.594,0,0,0,33.848,18.61Zm-1.689-1.719a.6.6,0,0,0-.427.18.627.627,0,0,0,0,.874.61.61,0,0,0,.427.179.614.614,0,0,0,.427-1.053A.591.591,0,0,0,32.159,16.891Zm-1.686-1.718a.6.6,0,0,0-.431.183.624.624,0,0,0,0,.87.6.6,0,0,0,.858,0,.628.628,0,0,0,0-.875A.6.6,0,0,0,30.474,15.173Zm-1.69-1.718a.588.588,0,0,0-.427.183.624.624,0,0,0,0,.87.6.6,0,0,0,.427.183.61.61,0,0,0,.431-.183.621.621,0,0,0,0-.87A.59.59,0,0,0,28.784,13.455ZM27.1,11.737a.6.6,0,0,0-.429.182.624.624,0,0,0,0,.87.6.6,0,0,0,.858,0,.624.624,0,0,0,0-.87A.6.6,0,0,0,27.1,11.737Zm-1.687-1.715a.594.594,0,0,0-.427.18.621.621,0,0,0,0,.869.59.59,0,0,0,.854,0,.616.616,0,0,0,0-.869A.594.594,0,0,0,25.409,10.022ZM23.721,8.3a.6.6,0,0,0-.429.18.626.626,0,0,0,0,.87.6.6,0,0,0,.431.183.594.594,0,0,0,.427-.183.624.624,0,0,0,0-.87A.6.6,0,0,0,23.721,8.3Z" transform="translate(0 0.274)" fill="#fd926b"/>
      </g>
    </g>
    <g id="Group_6" data-name="Group 6" transform="translate(27)">
      <path id="Clip_5-2" data-name="Clip 5" d="M0,0H71.206V33.7H0Z" transform="translate(0.321 0.302)" fill="none"/>
      <g id="Group_6-2" data-name="Group 6" clip-path="url(#clip-path-2)">
        <path id="Fill_4" data-name="Fill 4" d="M51.852,33.7H0L17.96,16.13l.508-.5L33.787.74a2.645,2.645,0,0,1,3.675,0L71.2,33.7l-18.667,0a.7.7,0,0,0-.343-.09.7.7,0,0,0-.342.09Zm-1.586-1.987a.693.693,0,0,0-.488.2.67.67,0,0,0-.2.484.659.659,0,0,0,.2.475.68.68,0,0,0,.488.2.71.71,0,0,0,.488-.2.673.673,0,0,0,0-.959A.693.693,0,0,0,50.267,31.711Zm-1.928-1.884a.691.691,0,0,0-.491.2.668.668,0,0,0,0,.954.7.7,0,0,0,.981,0,.673.673,0,0,0,0-.959A.7.7,0,0,0,48.339,29.827Zm-1.93-1.884a.689.689,0,0,0-.489.2.658.658,0,0,0,0,.954.68.68,0,0,0,.489.2.7.7,0,0,0,.488-.2.666.666,0,0,0,0-.954A.686.686,0,0,0,46.409,27.943Zm-1.932-1.885a.684.684,0,0,0-.487.2.664.664,0,0,0,0,.953.69.69,0,0,0,.487.2.7.7,0,0,0,.493-.2.66.66,0,0,0-.005-.953A.686.686,0,0,0,44.477,26.059Zm-1.926-1.881a.692.692,0,0,0-.488.2.658.658,0,0,0,0,.954.693.693,0,0,0,.976,0,.666.666,0,0,0,0-.954A.692.692,0,0,0,42.551,24.178ZM40.62,22.293a.692.692,0,0,0-.488.2.671.671,0,0,0-.2.482.659.659,0,0,0,.2.472.69.69,0,0,0,.487.2.7.7,0,0,0,.494-.2.662.662,0,0,0-.006-.954A.69.69,0,0,0,40.62,22.293Zm-1.927-1.885a.707.707,0,0,0-.493.2.671.671,0,0,0,0,.959.72.72,0,0,0,.493.2.691.691,0,0,0,.488-.2.666.666,0,0,0,0-.954A.693.693,0,0,0,38.692,20.408Zm-1.93-1.885a.694.694,0,0,0-.488.2.671.671,0,0,0,0,.958.707.707,0,0,0,.488.2.727.727,0,0,0,.493-.2.667.667,0,0,0-.005-.958A.692.692,0,0,0,36.762,18.524ZM34.834,16.64a.7.7,0,0,0-.492.2.667.667,0,0,0,0,.955.714.714,0,0,0,.981,0,.671.671,0,0,0,0-.959A.7.7,0,0,0,34.834,16.64ZM32.9,14.756a.689.689,0,0,0-.488.2.667.667,0,0,0,0,.955.7.7,0,0,0,.488.2.708.708,0,0,0,.492-.2.662.662,0,0,0,0-.955A.687.687,0,0,0,32.9,14.756Zm-1.929-1.885a.694.694,0,0,0-.489.2.666.666,0,0,0,0,.955.7.7,0,0,0,.98,0,.667.667,0,0,0,0-.955A.7.7,0,0,0,30.974,12.871Zm-1.929-1.881a.694.694,0,0,0-.488.2.655.655,0,0,0-.2.472.669.669,0,0,0,.2.483.7.7,0,0,0,.488.2.688.688,0,0,0,.488-.2.658.658,0,0,0,0-.955A.691.691,0,0,0,29.045,10.991ZM27.117,9.106a.7.7,0,0,0-.49.2.666.666,0,0,0,0,.955.7.7,0,0,0,.98,0,.667.667,0,0,0,0-.955A.7.7,0,0,0,27.117,9.106Z" transform="translate(0.321 0.302)" fill="#f24a08"/>
      </g>
    </g>
  </g>
</svg>
