<svg id="ticket-icon" xmlns="http://www.w3.org/2000/svg" width="41.6" height="41.6" viewBox="0 0 41.6 41.6">
  <g id="Glyphs_Icons_Tickets_Red" data-name="Glyphs / Icons / Tickets / Red">
    <circle id="Oval" cx="20.8" cy="20.8" r="20.8" fill="rgba(231,76,22,0.5)" opacity="0.639"/>
    <path id="Fill_1" data-name="Fill 1" d="M9.4,20.8a1.126,1.126,0,0,1-.656-.209L7.158,19.457a1.075,1.075,0,0,1-.446-1.166A2.164,2.164,0,0,0,5.9,15.872a2.2,2.2,0,0,0-1.285-.411,2.239,2.239,0,0,0-1.293.413.972.972,0,0,1-.569.176,1.206,1.206,0,0,1-.692-.226L.467,14.692a1.1,1.1,0,0,1-.256-1.551L4.174,7.7l.684.488A1.272,1.272,0,0,0,6.619,7.9a1.239,1.239,0,0,0-.287-1.741l-.683-.488L9.442.461A1.133,1.133,0,0,1,11.011.209L12.6,1.343a1.077,1.077,0,0,1,.445,1.166,2.166,2.166,0,0,0,.816,2.419,2.2,2.2,0,0,0,1.286.411,2.237,2.237,0,0,0,1.292-.413.973.973,0,0,1,.57-.176,1.21,1.21,0,0,1,.691.224l1.59,1.134a1.1,1.1,0,0,1,.256,1.549l-3.8,5.214-.683-.488a1.272,1.272,0,0,0-1.762.284,1.238,1.238,0,0,0,.286,1.741l.683.488-3.96,5.442A1.133,1.133,0,0,1,9.4,20.8ZM9.281,8.55a1.268,1.268,0,0,0-1.024.519,1.237,1.237,0,0,0,.286,1.741l1.367.974a1.27,1.27,0,0,0,1.76-.284,1.236,1.236,0,0,0-.286-1.741l-1.367-.974A1.258,1.258,0,0,0,9.281,8.55Z" transform="translate(11.44 10.4)" fill="#e74c16"/>
  </g>
</svg>
