<svg xmlns="http://www.w3.org/2000/svg" xmlns:xlink="http://www.w3.org/1999/xlink" width="169.603" height="23.232" viewBox="0 0 169.603 23.232">
  <defs>
    <clipPath id="clip-path">
      <path id="Clip_2" data-name="Clip 2" d="M0,0H16.978V23.158H0Z" transform="translate(0 0.117)" fill="none"/>
    </clipPath>
    <clipPath id="clip-path-2">
      <path id="Clip_5" data-name="Clip 5" d="M0,0H3.947V23.046H0Z" transform="translate(0.099 0.23)" fill="none"/>
    </clipPath>
    <clipPath id="clip-path-6">
      <path id="Clip_8" data-name="Clip 8" d="M0,0H19.814V23.046H0Z" transform="translate(0.224 0.23)" fill="none"/>
    </clipPath>
    <clipPath id="clip-path-7">
      <path id="Clip_11" data-name="Clip 11" d="M0,0H16.343V23.078H0Z" transform="translate(0.52 0.198)" fill="none"/>
    </clipPath>
    <clipPath id="clip-path-8">
      <path id="Clip_14" data-name="Clip 14" d="M0,0H15.252V23.159H0Z" transform="translate(0.661 0.117)" fill="none"/>
    </clipPath>
    <clipPath id="clip-path-10">
      <path id="Clip_17" data-name="Clip 17" d="M0,0H17.017V23.158H0Z" transform="translate(0.418 0.117)" fill="none"/>
    </clipPath>
    <clipPath id="clip-path-11">
      <path id="Clip_20" data-name="Clip 20" d="M0,0H13.947V23.126H0Z" transform="translate(0.57 0.15)" fill="none"/>
    </clipPath>
  </defs>
  <g id="logo" transform="translate(-0.253 -0.548)">
    <g id="Group_3" data-name="Group 3" transform="translate(0.253 0.431)">
      <path id="Clip_2-2" data-name="Clip 2" d="M0,0H16.978V23.158H0Z" transform="translate(0 0.117)" fill="none"/>
      <g id="Group_3-2" data-name="Group 3" clip-path="url(#clip-path)">
        <path id="Fill_1" data-name="Fill 1" d="M6.61,3.806H1.879A1.816,1.816,0,0,1,.541,3.242,1.83,1.83,0,0,1,0,1.9,1.829,1.829,0,0,1,.541.565,1.811,1.811,0,0,1,1.879,0H15.116a1.792,1.792,0,0,1,1.322.565A1.832,1.832,0,0,1,16.979,1.9a1.834,1.834,0,0,1-.541,1.339,1.8,1.8,0,0,1-1.322.564H10.369V21.256a1.86,1.86,0,0,1-.558,1.355,1.869,1.869,0,0,1-2.644,0,1.859,1.859,0,0,1-.557-1.355Z" transform="translate(0 0.117)" fill="#fd926b"/>
      </g>
    </g>
    <g id="Group_6" data-name="Group 6" transform="translate(20.08 0.431)">
      <path id="Clip_5-5" data-name="Clip 5" d="M0,0H3.947V23.046H0Z" transform="translate(0.099 0.23)" fill="none"/>
      <g id="Group_6-2" data-name="Group 6" clip-path="url(#clip-path-2)">
        <path id="Fill_4" data-name="Fill 4" d="M1.973,23.046a1.9,1.9,0,0,1-1.388-.564A1.765,1.765,0,0,1,0,21.142V1.9A1.763,1.763,0,0,1,.585.564,1.9,1.9,0,0,1,1.973,0,1.894,1.894,0,0,1,3.361.564,1.763,1.763,0,0,1,3.947,1.9V21.142a1.765,1.765,0,0,1-.585,1.339,1.894,1.894,0,0,1-1.388.564" transform="translate(0.099 0.23)" fill="#fd926b"/>
      </g>
    </g>
    <g id="Group_6-3" data-name="Group 6" transform="translate(126.08 0.431)">
      <path id="Clip_5-6" data-name="Clip 5" d="M0,0H3.947V23.046H0Z" transform="translate(0.099 0.23)" fill="none"/>
      <g id="Group_6-4" data-name="Group 6" clip-path="url(#clip-path-2)">
        <path id="Fill_4-2" data-name="Fill 4" d="M1.973,23.046a1.9,1.9,0,0,1-1.388-.564A1.765,1.765,0,0,1,0,21.142V1.9A1.763,1.763,0,0,1,.585.564,1.9,1.9,0,0,1,1.973,0,1.894,1.894,0,0,1,3.361.564,1.763,1.763,0,0,1,3.947,1.9V21.142a1.765,1.765,0,0,1-.585,1.339,1.894,1.894,0,0,1-1.388.564" transform="translate(0.099 0.23)" fill="#f24a08"/>
      </g>
    </g>
    <g id="Grupo_1" data-name="Grupo 1">
      <g id="v1" transform="translate(132.734 1.55) rotate(-17)">
        <path id="Clip_5-7" data-name="Clip 5" d="M0,0H3.947V23.046H0Z" transform="translate(0.099 0.23)" fill="none"/>
        <g id="Group_6-5" data-name="Group 6" clip-path="url(#clip-path-2)">
          <path id="Fill_4-3" data-name="Fill 4" d="M1.973,23.046a1.9,1.9,0,0,1-1.388-.564A1.765,1.765,0,0,1,0,21.142V1.9A1.763,1.763,0,0,1,.585.564,1.9,1.9,0,0,1,1.973,0,1.894,1.894,0,0,1,3.361.564,1.763,1.763,0,0,1,3.947,1.9V21.142a1.765,1.765,0,0,1-.585,1.339,1.894,1.894,0,0,1-1.388.564" transform="translate(0.099 0.23)" fill="#f24a08"/>
        </g>
      </g>
      <g id="v2" transform="translate(145.607 0.339) rotate(17)">
        <path id="Clip_5-8" data-name="Clip 5" d="M0,0H3.947V23.046H0Z" transform="translate(0.099 0.23)" fill="none"/>
        <g id="Group_6-6" data-name="Group 6" clip-path="url(#clip-path-2)">
          <path id="Fill_4-4" data-name="Fill 4" d="M1.973,23.046a1.9,1.9,0,0,1-1.388-.564A1.765,1.765,0,0,1,0,21.142V1.9A1.763,1.763,0,0,1,.585.564,1.9,1.9,0,0,1,1.973,0,1.894,1.894,0,0,1,3.361.564,1.763,1.763,0,0,1,3.947,1.9V21.142a1.765,1.765,0,0,1-.585,1.339,1.894,1.894,0,0,1-1.388.564" transform="translate(0.099 0.23)" fill="#f24a08"/>
        </g>
      </g>
    </g>
    <g id="Group_9" data-name="Group 9" transform="translate(27.839 0.431)">
      <path id="Clip_8-2" data-name="Clip 8" d="M0,0H19.814V23.046H0Z" transform="translate(0.224 0.23)" fill="none"/>
      <g id="Group_9-2" data-name="Group 9" clip-path="url(#clip-path-6)">
        <path id="Fill_7" data-name="Fill 7" d="M11.464,23.046a11.056,11.056,0,0,1-8.108-3.371A11.155,11.155,0,0,1,0,11.531,11.122,11.122,0,0,1,3.356,3.387,11.029,11.029,0,0,1,11.464,0a11.174,11.174,0,0,1,7,2.387,1.9,1.9,0,0,1,.723,1.258,1.878,1.878,0,0,1-.386,1.42,1.805,1.805,0,0,1-1.252.725,1.886,1.886,0,0,1-1.413-.371,7.417,7.417,0,0,0-4.673-1.6A7.361,7.361,0,0,0,6.053,6.079a7.446,7.446,0,0,0-2.248,5.452,7.425,7.425,0,0,0,2.248,5.435,7.359,7.359,0,0,0,5.411,2.258,7.4,7.4,0,0,0,5.17-2,1.829,1.829,0,0,1,1.365-.5,1.8,1.8,0,0,1,1.317.628,1.916,1.916,0,0,1-.113,2.693,11.114,11.114,0,0,1-7.739,3" transform="translate(0.224 0.23)" fill="#fd926b"/>
      </g>
    </g>
    <g id="Group_12" data-name="Group 12" transform="translate(51.115 0.431)">
      <path id="Clip_11-2" data-name="Clip 11" d="M0,0H16.343V23.078H0Z" transform="translate(0.52 0.198)" fill="none"/>
      <g id="Group_12-2" data-name="Group 12" clip-path="url(#clip-path-7)">
        <path id="Fill_10" data-name="Fill 10" d="M1.864,22.933a1.8,1.8,0,0,1-1.322-.564A1.812,1.812,0,0,1,0,21.046V1.887A1.815,1.815,0,0,1,.542.564,1.793,1.793,0,0,1,1.864,0,1.8,1.8,0,0,1,3.186.564a1.818,1.818,0,0,1,.542,1.323v8.482L12.838.677a1.821,1.821,0,0,1,1.306-.6,1.765,1.765,0,0,1,1.322.532,1.794,1.794,0,0,1,.574,1.307,1.781,1.781,0,0,1-.51,1.354L7.884,11.418l7.949,8.467a1.893,1.893,0,0,1,.509,1.354,1.847,1.847,0,0,1-.573,1.323,1.871,1.871,0,0,1-2.644-.064L5.3,14.159,3.728,15.853v5.193a1.815,1.815,0,0,1-.542,1.323,1.8,1.8,0,0,1-1.323.564" transform="translate(0.52 0.198)" fill="#fd926b"/>
      </g>
    </g>
    <g id="e" transform="translate(70.942 0.431)">
      <path id="Clip_14-3" data-name="Clip 14" d="M0,0H15.252V23.159H0Z" transform="translate(0.661 0.117)" fill="none"/>
      <g id="Group_15" data-name="Group 15" clip-path="url(#clip-path-8)">
        <path id="Fill_13" data-name="Fill 13" d="M13.378,19.336A1.756,1.756,0,0,1,14.7,19.9a1.858,1.858,0,0,1,.556,1.354,1.808,1.808,0,0,1-.556,1.338,1.756,1.756,0,0,1-1.319.564H1.875a1.753,1.753,0,0,1-1.319-.564A1.808,1.808,0,0,1,0,21.256V1.919A1.827,1.827,0,0,1,.556.564,1.753,1.753,0,0,1,1.875,0h.016L13.378.032A1.808,1.808,0,0,1,14.713.6a1.893,1.893,0,0,1,.54,1.355A1.807,1.807,0,0,1,14.7,3.29a1.755,1.755,0,0,1-1.319.564h-.016l-9.6-.032V9.676h6.927a1.838,1.838,0,0,1,1.335.549,1.928,1.928,0,0,1,0,2.709,1.835,1.835,0,0,1-1.335.549H3.766v5.854Z" transform="translate(0.661 0.117)" fill="#fd926b"/>
      </g>
    </g>
    <g id="Group_15-2" data-name="Group 15" transform="translate(153.942 0.431)">
      <path id="Clip_14-4" data-name="Clip 14" d="M0,0H15.252V23.159H0Z" transform="translate(0.661 0.117)" fill="none"/>
      <g id="Group_15-3" data-name="Group 15" transform="translate(-2)" clip-path="url(#clip-path-8)">
        <path id="Fill_13-2" data-name="Fill 13" d="M13.378,19.336A1.756,1.756,0,0,1,14.7,19.9a1.858,1.858,0,0,1,.556,1.354,1.808,1.808,0,0,1-.556,1.338,1.756,1.756,0,0,1-1.319.564H1.875a1.753,1.753,0,0,1-1.319-.564A1.808,1.808,0,0,1,0,21.256V1.919A1.827,1.827,0,0,1,.556.564,1.753,1.753,0,0,1,1.875,0h.016L13.378.032A1.808,1.808,0,0,1,14.713.6a1.893,1.893,0,0,1,.54,1.355A1.807,1.807,0,0,1,14.7,3.29a1.755,1.755,0,0,1-1.319.564h-.016l-9.6-.032V9.676h6.927a1.838,1.838,0,0,1,1.335.549,1.928,1.928,0,0,1,0,2.709,1.835,1.835,0,0,1-1.335.549H3.766v5.854Z" transform="translate(0.661 0.117)" fill="#f24a08"/>
      </g>
    </g>
    <g id="Group_18" data-name="Group 18" transform="translate(89.046 0.431)">
      <path id="Clip_17-2" data-name="Clip 17" d="M0,0H17.017V23.158H0Z" transform="translate(0.418 0.117)" fill="none"/>
      <g id="Group_18-2" data-name="Group 18" clip-path="url(#clip-path-10)">
        <path id="Fill_16" data-name="Fill 16" d="M6.625,3.806H1.884A1.823,1.823,0,0,1,.542,3.242,1.828,1.828,0,0,1,0,1.9,1.827,1.827,0,0,1,.542.565,1.817,1.817,0,0,1,1.884,0H15.15a1.8,1.8,0,0,1,1.325.565A1.83,1.83,0,0,1,17.017,1.9a1.831,1.831,0,0,1-.542,1.339,1.8,1.8,0,0,1-1.325.564H10.393V21.256a1.857,1.857,0,0,1-.56,1.355,1.876,1.876,0,0,1-2.65,0,1.857,1.857,0,0,1-.559-1.355Z" transform="translate(0.418 0.117)" fill="#fd926b"/>
      </g>
    </g>
    <g id="Group_21" data-name="Group 21" transform="translate(108.873 0.431)">
      <path id="Clip_20-2" data-name="Clip 20" d="M0,0H13.947V23.126H0Z" transform="translate(0.57 0.15)" fill="none"/>
      <g id="Group_21-2" data-name="Group 21" clip-path="url(#clip-path-11)">
        <path id="Fill_19" data-name="Fill 19" d="M1.864,0A1.739,1.739,0,0,1,3.174.564,1.812,1.812,0,0,1,3.727,1.9V19.321h8.356a1.793,1.793,0,0,1,1.327.564,1.939,1.939,0,0,1,0,2.678,1.791,1.791,0,0,1-1.327.564H1.864a1.741,1.741,0,0,1-1.311-.564A1.814,1.814,0,0,1,0,21.223V1.9A1.812,1.812,0,0,1,.553.564,1.741,1.741,0,0,1,1.864,0" transform="translate(0.57 0.15)" fill="#f24a08"/>
      </g>
    </g>
  </g>
</svg>
